# xmcd
#
# Track frame offsets: 
#        180
#        24009
#        48775
#        71715
#        74572
#        91223
#        115396
#        132034
#        134639
#        188945
#        215881
#
# Disc length: 3170 seconds
#
# Revision: 0
# Processed by: cddbd v1.4PL0 Copyright (c) Steve Scherf et al.
# Submitted via: ExactAudioCopy v0.90b4
#
DISCID=a50c600b
DTITLE=Wes - Live In Europe
DYEAR=1997
DGENRE=Blues
TTITLE0=Shootin` Iron
TTITLE1=Dog Blues
TTITLE2=Smile In My Sleep
TTITLE3=Introductions
TTITLE4=It Should Be Me
TTITLE5=My Old Lady
TTITLE6=Love Me Too Much
TTITLE7=Louisiana Blues
TTITLE8=Be Time
TTITLE9=Walkin´ Down The Street
TTITLE10=Shake
EXTD=
EXTT0=
EXTT1=
EXTT2=
EXTT3=
EXTT4=
EXTT5=
EXTT6=
EXTT7=
EXTT8=
EXTT9=
EXTT10=
PLAYORDER=
